# xmcd
#
# Track frame offsets:
#	150
#	18523
#	38178
#	58040
#	78575
#	96703
#	114659
#	132433
#	148690
#	168747
#	188696
#	210571
#
# Disc length: 3019 seconds
#
# Revision: 2
# Processed by: cddbd v1.5.2PL0 Copyright (c) Steve Scherf et al.
# Submitted via: EasyCDDAExtractor 12.0.1.1
#
DISCID=b30bc90c
DTITLE=Rocio Jurado - La Mas Grande
DYEAR=2001
DGENRE=Latin
TTITLE0=Se Nos Rompio El Amor
TTITLE1=Como Yo Te Amo
TTITLE2=Si Amanece
TTITLE3=Ese Hombre
TTITLE4=Como Una Hola
TTITLE5=Señora
TTITLE6=Amor Marinero
TTITLE7=Muera El Amor
TTITLE8=Lo Siento Mi Amor
TTITLE9=Mi Amante Amigo
TTITLE10=Por Que Me Habras Besado
TTITLE11=Caribeño
EXTD=\n\nYEAR: 2001  ID3G:  12
EXTT0=
EXTT1=
EXTT2=
EXTT3=
EXTT4=
EXTT5=
EXTT6=
EXTT7=
EXTT8=
EXTT9=
EXTT10=
EXTT11=
PLAYORDER=
